<svg xmlns="http://www.w3.org/2000/svg" xmlns:xlink="http://www.w3.org/1999/xlink" width="500" zoomAndPan="magnify" viewBox="0 0 375 374.999991" height="500" preserveAspectRatio="xMidYMid meet" version="1.0"><defs><clipPath id="a6b646b51e"><path d="M 259 127 L 344.457031 127 L 344.457031 230.585938 L 259 230.585938 Z M 259 127 " clipRule="nonzero"/></clipPath><clipPath id="35e4838bfc"><path d="M 255.207031 124.085938 L 342 124.085938 L 342 229 L 255.207031 229 Z M 255.207031 124.085938 " clipRule="nonzero"/></clipPath><clipPath id="4b8eb068a5"><path d="M 255.207031 124.085938 L 342 124.085938 L 342 173 L 255.207031 173 Z M 255.207031 124.085938 " clipRule="nonzero"/></clipPath><clipPath id="3ca3f1e3e0"><path d="M 82 128 L 187.128906 128 L 187.128906 226.085938 L 82 226.085938 Z M 82 128 " clipRule="nonzero"/></clipPath><clipPath id="bfea769603"><path d="M 78 124.085938 L 183 124.085938 L 183 223 L 78 223 Z M 78 124.085938 " clipRule="nonzero"/></clipPath><clipPath id="fcee1fa155"><path d="M 77.632812 124.085938 L 184 124.085938 L 184 223 L 77.632812 223 Z M 77.632812 124.085938 " clipRule="nonzero"/></clipPath><clipPath id="2774e28bdc"><path d="M 37.5 136.625 L 77 136.625 L 77 246 L 37.5 246 Z M 37.5 136.625 " clipRule="nonzero"/></clipPath><clipPath id="388ded40bb"><path d="M 184 129 L 272.226562 129 L 272.226562 226.695312 L 184 226.695312 Z M 184 129 " clipRule="nonzero"/></clipPath><clipPath id="4f3f1b3994"><path d="M 179.226562 129 L 268 129 L 268 226.695312 L 179.226562 226.695312 Z M 179.226562 129 " clipRule="nonzero"/></clipPath><clipPath id="cf40a32ccd"><path d="M 179.226562 128.445312 L 269 128.445312 L 269 226.695312 L 179.226562 226.695312 Z M 179.226562 128.445312 " clipRule="nonzero"/></clipPath></defs><g clip-path="url(#a6b646b51e)"><path fill="#000000" d="M 330.433594 159.296875 L 344.445312 127.128906 L 282.394531 154.511719 L 287.058594 148.0625 L 272.328125 152.933594 L 259.179688 174.53125 L 293.4375 163.742188 L 293.292969 163.785156 L 279.25 203.550781 L 292.988281 230.585938 L 316.261719 230.585938 L 319.742188 217.316406 L 324.339844 219.210938 L 316.542969 208.410156 L 308.527344 215.046875 L 297.925781 196.273438 L 307.382812 159.351562 L 317.679688 156.113281 L 314.828125 163.15625 Z M 330.433594 159.296875 " fill-opacity="1" fillRule="nonzero"/></g><g clip-path="url(#35e4838bfc)"><path fill="#ed2024" d="M 327.050781 156.84375 L 341.058594 124.675781 L 279.011719 152.0625 L 283.675781 145.609375 L 268.941406 150.480469 L 255.792969 172.078125 L 290.050781 161.292969 L 289.910156 161.335938 L 275.867188 201.097656 L 289.605469 228.136719 L 312.875 228.136719 L 316.359375 214.863281 L 320.957031 216.757812 L 313.160156 205.960938 L 305.144531 212.597656 L 294.539062 193.820312 L 303.996094 156.898438 L 314.292969 153.664062 L 311.445312 160.714844 Z M 327.050781 156.84375 " fill-opacity="1" fillRule="nonzero"/></g><g clip-path="url(#4b8eb068a5)"><path fill="#000000" d="M 255.792969 172.625 C 255.628906 172.625 255.464844 172.546875 255.367188 172.417969 C 255.226562 172.242188 255.214844 171.992188 255.335938 171.796875 L 268.484375 150.199219 C 268.550781 150.089844 268.660156 150 268.777344 149.96875 L 283.5 145.097656 C 283.730469 145.019531 283.96875 145.097656 284.109375 145.292969 C 284.253906 145.480469 284.253906 145.742188 284.109375 145.9375 L 280.628906 150.753906 L 340.84375 124.175781 C 341.050781 124.085938 341.289062 124.132812 341.441406 124.285156 C 341.605469 124.445312 341.648438 124.6875 341.5625 124.882812 L 327.550781 157.0625 C 327.488281 157.214844 327.34375 157.335938 327.179688 157.378906 L 311.574219 161.246094 C 311.378906 161.300781 311.171875 161.226562 311.03125 161.074219 C 310.898438 160.921875 310.855469 160.703125 310.929688 160.515625 L 313.34375 154.546875 L 255.957031 172.601562 C 255.902344 172.613281 255.847656 172.625 255.792969 172.625 Z M 269.3125 150.9375 L 257.015625 171.121094 L 314.132812 153.140625 C 314.328125 153.074219 314.558594 153.140625 314.699219 153.292969 C 314.839844 153.445312 314.882812 153.675781 314.808594 153.871094 L 312.363281 159.929688 L 326.667969 156.386719 L 340 125.742188 L 279.230469 152.5625 C 279 152.660156 278.738281 152.59375 278.585938 152.410156 C 278.433594 152.214844 278.421875 151.953125 278.5625 151.746094 L 282.234375 146.667969 Z M 269.3125 150.9375 " fill-opacity="1" fillRule="nonzero"/></g><path fill="#000000" d="M 312.875 228.679688 L 289.605469 228.679688 C 289.394531 228.679688 289.210938 228.5625 289.113281 228.386719 L 275.375 201.351562 C 275.308594 201.21875 275.296875 201.066406 275.34375 200.925781 L 289.386719 161.160156 C 289.484375 160.878906 289.800781 160.722656 290.085938 160.824219 C 290.367188 160.921875 290.519531 161.238281 290.421875 161.519531 L 276.457031 201.066406 L 289.929688 227.589844 L 312.449219 227.589844 L 315.824219 214.730469 C 315.867188 214.578125 315.964844 214.449219 316.109375 214.382812 C 316.25 214.316406 316.414062 214.308594 316.554688 214.371094 L 319.371094 215.539062 L 313.039062 206.765625 L 305.472656 213.03125 C 305.351562 213.128906 305.1875 213.171875 305.023438 213.152344 C 304.859375 213.121094 304.726562 213.019531 304.652344 212.878906 L 294.058594 194.09375 C 293.992188 193.972656 293.972656 193.832031 294.003906 193.6875 L 303.460938 156.769531 C 303.539062 156.476562 303.832031 156.300781 304.128906 156.375 C 304.421875 156.453125 304.597656 156.746094 304.519531 157.042969 L 295.117188 193.753906 L 305.296875 211.769531 L 312.808594 205.554688 C 312.929688 205.457031 313.082031 205.414062 313.222656 205.4375 C 313.378906 205.457031 313.507812 205.535156 313.597656 205.65625 L 321.382812 216.453125 C 321.523438 216.648438 321.511719 216.921875 321.371094 217.109375 C 321.21875 217.304688 320.957031 217.367188 320.738281 217.269531 L 316.730469 215.605469 L 313.410156 228.265625 C 313.34375 228.507812 313.125 228.679688 312.875 228.679688 Z M 312.875 228.679688 " fill-opacity="1" fillRule="nonzero"/><path fill="#000000" d="M 305.644531 212.367188 L 309.445312 222.011719 L 304.652344 212.824219 Z M 305.644531 212.367188 " fill-opacity="1" fillRule="nonzero"/><path fill="#000000" d="M 314.085938 153.160156 L 323.992188 149.578125 L 314.511719 154.164062 Z M 314.085938 153.160156 " fill-opacity="1" fillRule="nonzero"/><g clip-path="url(#3ca3f1e3e0)"><path fill="#000000" d="M 106.011719 165.007812 L 110.664062 175.300781 L 100.277344 206.511719 L 92.875 211.011719 L 88.8125 226.082031 L 123.539062 221.742188 L 126.058594 171.019531 L 120.589844 157.855469 L 136.582031 176.570312 L 146.703125 154.277344 L 145.484375 167.257812 L 159.207031 220.703125 L 187.128906 226.082031 L 165.289062 166.21875 L 170.90625 150.261719 L 173.453125 151.3125 L 178.195312 137.421875 L 165.367188 128.386719 L 135.351562 153.226562 L 100.855469 130.472656 L 82.582031 148.199219 L 93.785156 160.140625 L 90.125 164.765625 L 100.058594 172.648438 Z M 106.011719 165.007812 " fill-opacity="1" fillRule="nonzero"/></g><g clip-path="url(#bfea769603)"><path fill="#ed2024" d="M 101.695312 161.339844 L 106.347656 171.621094 L 95.960938 202.84375 L 88.570312 207.34375 L 84.492188 222.414062 L 119.230469 218.0625 L 121.742188 167.351562 L 116.273438 154.175781 L 132.277344 172.902344 L 142.398438 150.609375 L 141.175781 163.589844 L 154.890625 217.035156 L 182.8125 222.414062 L 160.96875 162.550781 L 166.601562 146.59375 L 169.144531 147.632812 L 173.878906 133.75 L 161.050781 124.714844 L 131.046875 149.558594 L 96.539062 126.804688 L 78.265625 144.527344 L 89.46875 156.46875 L 85.816406 161.085938 L 95.742188 168.964844 Z M 101.695312 161.339844 " fill-opacity="1" fillRule="nonzero"/></g><g clip-path="url(#fcee1fa155)"><path fill="#000000" d="M 182.8125 222.988281 C 182.777344 222.988281 182.742188 222.988281 182.710938 222.976562 L 154.789062 217.601562 C 154.570312 217.554688 154.394531 217.394531 154.339844 217.175781 L 140.613281 163.726562 C 140.601562 163.660156 140.589844 163.601562 140.601562 163.53125 L 141.5 153.964844 L 132.796875 173.144531 C 132.714844 173.328125 132.542969 173.445312 132.347656 173.476562 C 132.152344 173.5 131.953125 173.433594 131.828125 173.28125 L 118.207031 157.324219 L 122.269531 167.132812 C 122.304688 167.210938 122.316406 167.292969 122.316406 167.386719 L 119.808594 218.109375 C 119.796875 218.386719 119.578125 218.617188 119.300781 218.652344 L 84.5625 222.988281 C 84.367188 223.011719 84.183594 222.941406 84.054688 222.792969 C 83.929688 222.644531 83.882812 222.445312 83.929688 222.261719 L 88.003906 207.191406 C 88.039062 207.054688 88.132812 206.929688 88.257812 206.847656 L 95.476562 202.460938 L 105.726562 171.667969 L 101.570312 162.449219 L 96.203125 169.335938 C 96.109375 169.449219 95.972656 169.53125 95.824219 169.554688 C 95.671875 169.578125 95.511719 169.53125 95.398438 169.441406 L 85.460938 161.558594 C 85.34375 161.464844 85.265625 161.328125 85.242188 161.179688 C 85.21875 161.027344 85.265625 160.878906 85.355469 160.75 L 88.707031 156.527344 L 77.851562 144.921875 C 77.632812 144.691406 77.640625 144.332031 77.871094 144.113281 L 96.144531 126.390625 C 96.339844 126.203125 96.640625 126.171875 96.859375 126.320312 L 131 148.84375 L 160.683594 124.265625 C 160.878906 124.105469 161.167969 124.09375 161.386719 124.242188 L 174.210938 133.277344 C 174.417969 133.429688 174.511719 133.695312 174.429688 133.9375 L 169.6875 147.828125 C 169.640625 147.976562 169.527344 148.105469 169.375 148.164062 C 169.226562 148.230469 169.066406 148.230469 168.914062 148.175781 L 166.933594 147.367188 L 161.582031 162.550781 L 183.355469 222.214844 C 183.421875 222.414062 183.390625 222.632812 183.25 222.792969 C 183.148438 222.921875 182.984375 222.988281 182.8125 222.988281 Z M 89.066406 207.710938 L 85.277344 221.730469 L 118.679688 217.554688 L 121.167969 167.453125 L 115.753906 154.40625 C 115.652344 154.140625 115.742188 153.839844 115.984375 153.691406 C 116.226562 153.539062 116.539062 153.585938 116.722656 153.804688 L 132.128906 171.839844 L 141.878906 150.367188 C 141.996094 150.113281 142.28125 149.972656 142.546875 150.042969 C 142.824219 150.113281 142.996094 150.378906 142.972656 150.65625 L 141.765625 163.542969 L 155.363281 216.539062 L 181.925781 221.652344 L 160.429688 162.746094 C 160.382812 162.621094 160.382812 162.480469 160.429688 162.355469 L 166.058594 146.398438 C 166.117188 146.246094 166.222656 146.132812 166.371094 146.0625 C 166.507812 145.992188 166.683594 145.992188 166.820312 146.050781 L 168.800781 146.859375 L 173.199219 133.957031 L 161.085938 125.445312 L 131.414062 149.996094 C 131.21875 150.160156 130.941406 150.171875 130.734375 150.03125 L 96.617188 127.53125 L 79.070312 144.550781 L 89.882812 156.078125 C 90.078125 156.285156 90.089844 156.609375 89.917969 156.828125 L 86.625 160.992188 L 95.652344 168.160156 L 101.246094 160.980469 C 101.375 160.820312 101.570312 160.738281 101.765625 160.761719 C 101.960938 160.785156 102.132812 160.914062 102.226562 161.097656 L 106.875 171.390625 C 106.933594 171.515625 106.945312 171.679688 106.898438 171.804688 L 96.515625 203.015625 C 96.46875 203.144531 96.386719 203.257812 96.273438 203.328125 Z M 89.066406 207.710938 " fill-opacity="1" fillRule="nonzero"/></g><path fill="#000000" d="M 101.175781 161.582031 L 94.429688 145.359375 L 102.226562 161.097656 C 102.546875 161.8125 101.511719 162.296875 101.175781 161.582031 Z M 101.175781 161.582031 " fill-opacity="1" fillRule="nonzero"/><path fill="#000000" d="M 166.046875 146.410156 L 169.375 138.195312 L 167.140625 146.765625 C 166.910156 147.550781 165.785156 147.183594 166.046875 146.410156 Z M 166.046875 146.410156 " fill-opacity="1" fillRule="nonzero"/><path fill="#000000" d="M 96.515625 203.003906 L 92.578125 214.195312 L 95.410156 202.683594 C 95.628906 201.910156 96.746094 202.242188 96.515625 203.003906 Z M 96.515625 203.003906 " fill-opacity="1" fillRule="nonzero"/><path fill="#000000" d="M 115.789062 154.484375 L 113.265625 149.292969 L 116.769531 153.875 C 117.25 154.566406 116.191406 155.222656 115.789062 154.484375 Z M 115.789062 154.484375 " fill-opacity="1" fillRule="nonzero"/><path fill="#000000" d="M 141.835938 150.46875 L 143.617188 145.566406 L 142.949219 150.746094 C 142.90625 151.070312 142.617188 151.289062 142.304688 151.242188 C 141.9375 151.199219 141.707031 150.804688 141.835938 150.46875 Z M 141.835938 150.46875 " fill-opacity="1" fillRule="nonzero"/><path fill="#000000" d="M 73.132812 207.902344 L 64.476562 214.140625 L 61.703125 153.503906 C 67.382812 147.847656 71.816406 143.761719 71.816406 143.761719 L 71.816406 140.003906 C 53.398438 145.824219 42.238281 154.925781 42.238281 154.925781 L 40.25 177.828125 C 41.945312 175.257812 44.261719 172.3125 46.882812 169.25 L 45.8125 227.605469 L 41.839844 230.46875 C 41.839844 230.46875 41.402344 248.277344 41.839844 247.847656 C 42.273438 247.414062 55.164062 236.078125 77.386719 230.46875 L 78 212.035156 Z M 73.132812 207.902344 " fill-opacity="1" fillRule="nonzero"/><path fill="#ed2024" d="M 70.980469 205.25 L 62.324219 211.488281 L 59.550781 150.851562 C 65.230469 145.195312 69.664062 141.109375 69.664062 141.109375 L 69.664062 137.339844 C 51.246094 143.167969 40.085938 152.257812 40.085938 152.257812 L 38.101562 175.164062 C 39.792969 172.589844 42.109375 169.648438 44.730469 166.585938 L 43.660156 224.941406 L 39.6875 227.804688 C 39.6875 227.804688 39.253906 245.613281 39.6875 245.179688 C 40.121094 244.75 53.011719 233.414062 75.238281 227.804688 L 75.847656 209.367188 Z M 70.980469 205.25 " fill-opacity="1" fillRule="nonzero"/><g clip-path="url(#2774e28bdc)"><path fill="#000000" d="M 39.6875 245.773438 C 39.605469 245.773438 39.523438 245.761719 39.453125 245.726562 C 39.039062 245.554688 39.015625 245.132812 38.980469 244.425781 C 38.957031 243.957031 38.933594 243.273438 38.933594 242.410156 C 38.921875 240.957031 38.921875 238.941406 38.957031 236.429688 C 39.015625 232.144531 39.109375 227.839844 39.121094 227.792969 C 39.121094 227.605469 39.21875 227.445312 39.371094 227.339844 L 43.097656 224.652344 L 44.132812 168.226562 C 41.816406 170.996094 39.957031 173.429688 38.605469 175.488281 C 38.464844 175.710938 38.183594 175.804688 37.921875 175.722656 C 37.664062 175.640625 37.5 175.382812 37.523438 175.117188 L 39.511719 152.210938 C 39.523438 152.0625 39.605469 151.910156 39.722656 151.816406 C 39.839844 151.722656 42.605469 149.476562 47.671875 146.488281 C 52.339844 143.726562 59.925781 139.816406 69.484375 136.78125 C 69.664062 136.722656 69.863281 136.757812 70.015625 136.859375 C 70.167969 136.964844 70.261719 137.140625 70.261719 137.328125 L 70.261719 141.097656 C 70.261719 141.261719 70.191406 141.410156 70.074219 141.527344 C 70.027344 141.5625 65.6875 145.589844 60.160156 151.070312 L 62.878906 210.382812 L 70.648438 204.785156 C 70.875 204.621094 71.167969 204.632812 71.378906 204.808594 L 76.257812 208.925781 C 76.402344 209.042969 76.472656 209.207031 76.472656 209.390625 L 75.859375 227.828125 C 75.847656 228.082031 75.671875 228.304688 75.414062 228.375 C 63.949219 231.273438 55.070312 235.71875 49.636719 238.941406 C 43.378906 242.644531 40.167969 245.578125 40.144531 245.601562 C 40.003906 245.703125 39.851562 245.773438 39.6875 245.773438 Z M 40.285156 228.105469 C 40.15625 233.378906 40.039062 241.28125 40.144531 244.027344 C 41.570312 242.863281 44.625 240.535156 49.011719 237.929688 C 54.445312 234.707031 63.289062 230.273438 74.683594 227.339844 L 75.273438 209.613281 L 70.96875 205.96875 L 62.675781 211.953125 C 62.5 212.082031 62.277344 212.105469 62.078125 212.011719 C 61.878906 211.917969 61.761719 211.730469 61.75 211.511719 L 58.972656 150.875 C 58.960938 150.710938 59.03125 150.546875 59.148438 150.433594 C 64.125 145.484375 68.179688 141.691406 69.085938 140.851562 L 69.085938 138.140625 C 52.71875 143.460938 42.179688 151.375 40.652344 152.5625 L 38.875 173.011719 C 40.308594 171.007812 42.132812 168.726562 44.285156 166.214844 C 44.449219 166.027344 44.707031 165.957031 44.945312 166.050781 C 45.179688 166.132812 45.332031 166.363281 45.320312 166.609375 L 44.261719 224.964844 C 44.261719 225.152344 44.167969 225.3125 44.015625 225.429688 Z M 40.285156 228.105469 " fill-opacity="1" fillRule="nonzero"/></g><path fill="#000000" d="M 44.15625 166.539062 L 45.507812 157.148438 L 45.320312 166.632812 Z M 44.15625 166.539062 " fill-opacity="1" fillRule="nonzero"/><path fill="#000000" d="M 62.710938 211.929688 L 55.925781 216.992188 L 61.949219 211.046875 Z M 62.710938 211.929688 " fill-opacity="1" fillRule="nonzero"/><g clip-path="url(#388ded40bb)"><path fill="#000000" d="M 184.351562 150.039062 L 207.507812 150.953125 L 220.285156 161.503906 L 230.996094 200.25 L 233.957031 166.203125 L 240.917969 150.039062 L 239.71875 140.167969 L 272.226562 129.007812 C 272.226562 129.007812 245.347656 163.808594 240.898438 208.28125 L 219 226.171875 L 217.253906 211.648438 L 221.382812 207.539062 L 209.695312 174.765625 Z M 184.351562 150.039062 " fill-opacity="1" fillRule="nonzero"/></g><g clip-path="url(#4f3f1b3994)"><path fill="#ed2024" d="M 179.777344 150.039062 L 202.933594 150.953125 L 215.710938 161.503906 L 226.433594 200.25 L 229.394531 166.203125 L 236.351562 150.039062 L 229.960938 152.332031 L 235.15625 140.167969 L 267.652344 129.007812 C 267.652344 129.007812 240.773438 163.808594 236.320312 208.28125 L 214.433594 226.171875 L 212.6875 211.648438 L 216.816406 207.539062 L 205.121094 174.765625 Z M 179.777344 150.039062 " fill-opacity="1" fillRule="nonzero"/></g><g clip-path="url(#cf40a32ccd)"><path fill="#000000" d="M 214.433594 226.683594 C 214.371094 226.683594 214.300781 226.671875 214.242188 226.640625 C 214.070312 226.570312 213.945312 226.417969 213.925781 226.234375 L 212.183594 211.707031 C 212.160156 211.554688 212.210938 211.390625 212.324219 211.28125 L 216.21875 207.40625 L 204.6875 175.050781 L 179.421875 150.402344 C 179.269531 150.261719 179.226562 150.027344 179.308594 149.832031 C 179.390625 149.640625 179.582031 149.515625 179.796875 149.527344 L 202.953125 150.445312 C 203.0625 150.445312 203.164062 150.484375 203.257812 150.558594 L 216.035156 161.105469 C 216.117188 161.179688 216.179688 161.261719 216.199219 161.363281 L 226.167969 197.40625 L 228.886719 166.164062 C 228.886719 166.113281 228.90625 166.050781 228.929688 166.011719 L 235.417969 150.925781 L 230.136719 152.820312 C 229.941406 152.890625 229.730469 152.839844 229.597656 152.6875 C 229.464844 152.535156 229.425781 152.320312 229.507812 152.136719 L 234.699219 139.976562 C 234.761719 139.84375 234.863281 139.742188 235.003906 139.691406 L 267.492188 128.527344 C 267.703125 128.457031 267.9375 128.527344 268.070312 128.710938 C 268.203125 128.894531 268.191406 129.140625 268.058594 129.324219 C 267.988281 129.414062 261.273438 138.160156 254.101562 152.230469 C 247.488281 165.195312 239.121094 185.449219 236.839844 208.34375 C 236.828125 208.476562 236.757812 208.597656 236.65625 208.691406 L 214.75 226.558594 C 214.65625 226.640625 214.546875 226.683594 214.433594 226.683594 Z M 213.226562 211.832031 L 214.828125 225.195312 L 235.84375 208.019531 C 236.871094 197.90625 239.152344 187.457031 242.621094 176.96875 C 245.410156 168.527344 248.96875 160.035156 253.210938 151.730469 C 258.820312 140.75 264.144531 132.972656 266.285156 130.015625 L 235.542969 140.578125 L 230.894531 151.453125 L 236.191406 149.558594 C 236.382812 149.488281 236.597656 149.539062 236.726562 149.691406 C 236.871094 149.84375 236.898438 150.058594 236.820312 150.242188 L 229.890625 166.328125 L 226.929688 200.292969 C 226.910156 200.535156 226.71875 200.730469 226.472656 200.75 C 226.230469 200.769531 226.007812 200.617188 225.9375 200.382812 L 215.265625 161.789062 L 202.738281 151.464844 L 181.074219 150.609375 L 205.46875 174.410156 C 205.519531 174.460938 205.570312 174.53125 205.589844 174.605469 L 217.285156 207.375 C 217.355469 207.558594 217.304688 207.773438 217.164062 207.90625 Z M 213.226562 211.832031 " fill-opacity="1" fillRule="nonzero"/></g><path fill="#000000" d="M 217.273438 207.316406 L 219.851562 213.847656 L 216.359375 207.761719 Z M 217.273438 207.316406 " fill-opacity="1" fillRule="nonzero"/><path fill="#000000" d="M 235.917969 149.792969 L 239.933594 143.707031 L 236.800781 150.292969 Z M 235.917969 149.792969 " fill-opacity="1" fillRule="nonzero"/></svg>